<?xml version="1.0" encoding="UTF-8" standalone="no"?>
<svg width="385px" height="340px" viewBox="0 0 385 340" version="1.1" xmlns="http://www.w3.org/2000/svg" xmlns:xlink="http://www.w3.org/1999/xlink" xmlns:sketch="http://www.bohemiancoding.com/sketch/ns">
    <!-- Generator: Sketch 3.3.3 (12081) - http://www.bohemiancoding.com/sketch -->
    <title>countour</title>
    <desc>Created with Sketch.</desc>
    <defs></defs>
    <g id="Page-1" stroke="none" stroke-width="1" fill="none" fill-rule="evenodd" sketch:type="MSPage">
        <g id="512" sketch:type="MSArtboardGroup" transform="translate(-55.000000, -76.000000)" fill="#FFFFFF">
            <g id="swift-icon" sketch:type="MSLayerGroup">
                <path d="M291.5,76 C454.7,181.6 404.799994,314.4 404.799994,314.4 C404.799994,314.4 422.399994,334.4 431.199994,359.2 C439.999994,384 439.90303,414.4 438.30303,415.2 C436.70303,416 416.073341,380.8 379.999994,380.8 C343.926646,380.8 325.599981,415.2 261.599994,415.2 C117.497774,415.2 55,297.000003 55,297.000003 C55,297.000003 118.4,342.4 184.800006,340.8 C251.200012,339.2 269.599994,320 269.599994,320 C269.599994,320 239.910324,295.156721 188.8,245.2 C137.689676,195.243279 89.6,126.4 89.6,126.4 C89.6,126.4 166.645428,187.462295 191.358112,205.424262 C216.070796,223.38623 240.783481,239.664262 240.783481,239.664262 C240.783481,239.664262 216.849558,213.84394 200,193.075415 C183.150442,172.30689 140,109.6 140,109.6 C140,109.6 206.180531,169.35082 236.290265,193.07541 C266.4,216.8 324,256.8 324,256.8 C324,256.8 358.7,177.6 291.5,76 Z" id="countour" sketch:type="MSShapeGroup"></path>
            </g>
        </g>
    </g>
</svg>